<svg width="20" height="20" viewBox="0 0 20 20" fill="none" xmlns="http://www.w3.org/2000/svg">
<path d="M12.3739 9.99976L19.8022 2.57197C20.0659 2.3082 20.0659 1.88135 19.8022 1.61767L18.3825 0.197493C18.2561 0.071141 18.0845 0 17.9054 0C17.7263 0 17.5547 0.071141 17.4283 0.197493L10 7.62585L2.57174 0.197493C2.4453 0.071141 2.27372 0 2.09459 0C1.9155 0 1.74388 0.071141 1.61748 0.197493L0.19783 1.61767C-0.0659432 1.88135 -0.0659432 2.3082 0.19783 2.57197L7.6261 9.9998L0.198568 17.4267C-0.0650751 17.6905 -0.0650751 18.1173 0.198568 18.381L1.61831 19.8012C1.74466 19.9276 1.91628 19.9987 2.09542 19.9987C2.27455 19.9987 2.44613 19.9276 2.57261 19.8012L9.99997 12.3737L17.4274 19.8012C17.5538 19.9276 17.7254 19.9987 17.9045 19.9987C18.0837 19.9987 18.2553 19.9276 18.3816 19.8012L19.8014 18.381C20.065 18.1173 20.065 17.6905 19.8014 17.4267L12.3739 9.99976Z" fill="#565656"/>
</svg>
