<svg width="20" height="20" viewBox="0 0 20 20" fill="none" xmlns="http://www.w3.org/2000/svg">
<mask id="mask0_10004_87" style="mask-type:luminance" maskUnits="userSpaceOnUse" x="0" y="0" width="20" height="20">
<path d="M20 0H0V20H20V0Z" fill="white"/>
</mask>
<g mask="url(#mask0_10004_87)">
<mask id="mask1_10004_87" style="mask-type:luminance" maskUnits="userSpaceOnUse" x="2" y="-8" width="34" height="31">
<path d="M35.7522 -7.67578H5.44922V22.6272H35.7522V-7.67578Z" fill="white"/>
<path d="M17.6189 0.65625H8.38692C8.38692 0.65625 0.733917 5.38425 4.69392 7.00125C9.33292 8.89525 8.38692 12.0892 8.38692 17.5942C10.8479 17.5942 17.6189 17.5942 17.6189 17.5942V0.65625Z" fill="black"/>
<path d="M11.7947 -0.787125L2.2207 -0.828125V17.5929C2.2207 17.5929 9.0487 17.6429 11.5107 17.6429C11.5107 13.1829 10.9427 8.81787 14.5407 7.01888C17.8097 5.38387 11.7947 -0.787125 11.7947 -0.787125Z" fill="white"/>
</mask>
<g mask="url(#mask1_10004_87)">
<path d="M3.00213 11.6686C3.47799 11.6686 3.87399 11.5063 4.19607 11.1789C4.51749 10.8515 4.67985 10.4555 4.67985 9.98827C4.67985 9.52033 4.51749 9.11641 4.19607 8.79433C3.87399 8.47291 3.47535 8.31055 3.00213 8.31055C2.52957 8.31055 2.13885 8.47291 1.81149 8.79433C1.48413 9.11641 1.32177 9.51505 1.32177 9.98827C1.32177 10.4608 1.48413 10.8515 1.81149 11.1789C2.13885 11.5063 2.53485 11.6686 3.00213 11.6686ZM5.40585 12.6335C5.10885 12.4494 4.75707 12.3088 4.34721 12.2184C3.93999 12.1247 3.48921 12.0778 2.99949 12.0778C2.50977 12.0778 2.07285 12.1247 1.66563 12.2184C1.25577 12.3121 0.903987 12.4494 0.606987 12.6335C0.309987 12.8177 0.0816273 13.0322 -0.0774325 13.2797C-0.237153 13.5272 -0.319653 13.7998 -0.319653 14.0968L-0.320312 14.964H6.31797L6.31863 14.0968C6.31863 13.7998 6.23943 13.5245 6.08235 13.2797C5.92593 13.0322 5.70021 12.8177 5.40321 12.6335H5.40585Z" fill="#1E61F0"/>
</g>
<mask id="mask2_10004_87" style="mask-type:luminance" maskUnits="userSpaceOnUse" x="0" y="-1" width="22" height="22">
<path d="M20 0.0625H0V20.0625H20V0.0625Z" fill="white"/>
<path d="M17.6189 0.65625H8.38692C8.38692 0.65625 0.733917 5.38425 4.69392 7.00125C9.33292 8.89525 8.38692 12.0892 8.38692 17.5942C10.8479 17.5942 17.6189 17.5942 17.6189 17.5942V0.65625Z" fill="black"/>
<path d="M11.7947 -0.787125L2.2207 -0.828125V17.5929C2.2207 17.5929 15.1109 17.6609 17.5729 17.6609C17.5729 13.2009 17.0049 8.83588 20.6029 7.03688C23.8719 5.40188 11.7947 -0.787125 11.7947 -0.787125Z" fill="white"/>
</mask>
<g mask="url(#mask2_10004_87)">
<path d="M10.0008 9.93956C10.7218 9.93956 11.3218 9.69356 11.8098 9.19756C12.2968 8.70156 12.5428 8.10156 12.5428 7.39356C12.5428 6.68456 12.2968 6.07256 11.8098 5.58456C11.3218 5.09756 10.7178 4.85156 10.0008 4.85156C9.2848 4.85156 8.6928 5.09756 8.1968 5.58456C7.7008 6.07256 7.4548 6.67656 7.4548 7.39356C7.4548 8.10956 7.7008 8.70156 8.1968 9.19756C8.6928 9.69356 9.2928 9.93956 10.0008 9.93956ZM13.6428 11.4016C13.1928 11.1226 12.6598 10.9096 12.0388 10.7726C11.4218 10.6306 10.7388 10.5596 9.9968 10.5596C9.2548 10.5596 8.5928 10.6306 7.9758 10.7726C7.3548 10.9146 6.8218 11.1226 6.3718 11.4016C5.9218 11.6806 5.5758 12.0056 5.3348 12.3806C5.0928 12.7556 4.9678 13.1686 4.9678 13.6186L4.9668 14.9326H15.0248L15.0258 13.6186C15.0258 13.1686 14.9058 12.7516 14.6678 12.3806C14.4308 12.0056 14.0888 11.6806 13.6388 11.4016H13.6428Z" fill="#1E61F0"/>
</g>
<mask id="mask3_10004_87" style="mask-type:luminance" maskUnits="userSpaceOnUse" x="12" y="5" width="11" height="12">
<path d="M22.0314 5.5H15.9383C15.9383 5.5 10.887 8.62048 13.5006 9.6877C16.5623 10.9377 15.9379 13.0458 15.9379 16.6791C17.5622 16.6791 22.0314 16.6791 22.0314 16.6791V5.5Z" fill="white"/>
</mask>
<g mask="url(#mask3_10004_87)">
<path d="M17.0021 11.6686C17.478 11.6686 17.874 11.5063 18.1961 11.1789C18.5175 10.8515 18.6798 10.4555 18.6798 9.98827C18.6798 9.52033 18.5175 9.11641 18.1961 8.79433C17.874 8.47291 17.4753 8.31055 17.0021 8.31055C16.5296 8.31055 16.1388 8.47291 15.8115 8.79433C15.4841 9.11641 15.3218 9.51505 15.3218 9.98827C15.3218 10.4608 15.4841 10.8515 15.8115 11.1789C16.1388 11.5063 16.5348 11.6686 17.0021 11.6686ZM19.4058 12.6335C19.1088 12.4494 18.7571 12.3088 18.3472 12.2184C17.94 12.1247 17.4892 12.0778 16.9995 12.0778C16.5098 12.0778 16.0728 12.1247 15.6656 12.2184C15.2558 12.3121 14.904 12.4494 14.607 12.6335C14.31 12.8177 14.0816 13.0322 13.9226 13.2797C13.7628 13.5272 13.6803 13.7998 13.6803 14.0968L13.6797 14.964H20.318L20.3186 14.0968C20.3186 13.7998 20.2394 13.5245 20.0823 13.2797C19.9259 13.0322 19.7002 12.8177 19.4032 12.6335H19.4058Z" fill="#1E61F0"/>
</g>
</g>
</svg>
