<svg width="64" height="64" viewBox="0 0 64 64" fill="none" xmlns="http://www.w3.org/2000/svg">
<mask id="mask0_10004_694" style="mask-type:luminance" maskUnits="userSpaceOnUse" x="0" y="0" width="64" height="64">
<path d="M64 0H0V64H64V0Z" fill="white"/>
</mask>
<g mask="url(#mask0_10004_694)">
<path d="M24 0H64V40C64 53.247 53.247 64 40 64H0V24C0 10.753 10.753 0 24 0Z" fill="#C9C2F5"/>
<mask id="mask1_10004_694" style="mask-type:alpha" maskUnits="userSpaceOnUse" x="16" y="17" width="32" height="32">
<mask id="mask2_10004_694" style="mask-type:luminance" maskUnits="userSpaceOnUse" x="16" y="17" width="32" height="32">
<path d="M32.1245 17.6406C23.5995 17.6406 16.6875 24.5516 16.6875 33.0766C16.6875 41.6016 23.5995 48.5136 32.1245 48.5136C40.6495 48.5136 47.5615 41.6016 47.5615 33.0766C47.5615 24.5516 40.6495 17.6406 32.1245 17.6406Z" fill="white"/>
</mask>
<g mask="url(#mask2_10004_694)">
<path d="M63.875 0.625H-0.125V64.625H63.875V0.625Z" fill="#2D2D2D"/>
</g>
</mask>
<g mask="url(#mask1_10004_694)">
<path d="M39.5 60.5C46.058 60.5 51.5 55.419 51.5 49C51.5 42.581 46.058 37.5 39.5 37.5C32.942 37.5 27.5 42.581 27.5 49C27.5 55.419 32.942 60.5 39.5 60.5Z" fill="#2F1761"/>
<path d="M39.5 60.5C46.058 60.5 51.5 55.419 51.5 49C51.5 42.581 46.058 37.5 39.5 37.5C32.942 37.5 27.5 42.581 27.5 49C27.5 55.419 32.942 60.5 39.5 60.5Z" stroke="#C9C2F5" stroke-width="3"/>
<path d="M39 28C41.209 28 43 29.791 43 32C43 34.209 41.209 36 39 36C36.791 36 35 34.209 35 32C35 29.791 36.791 28 39 28Z" fill="#2F1761"/>
</g>
<mask id="mask3_10004_694" style="mask-type:alpha" maskUnits="userSpaceOnUse" x="16" y="17" width="32" height="32">
<mask id="mask4_10004_694" style="mask-type:luminance" maskUnits="userSpaceOnUse" x="16" y="17" width="32" height="32">
<path d="M32.1245 17.6406C23.5995 17.6406 16.6875 24.5516 16.6875 33.0766C16.6875 41.6016 23.5995 48.5136 32.1245 48.5136C40.6495 48.5136 47.5615 41.6016 47.5615 33.0766C47.5615 24.5516 40.6495 17.6406 32.1245 17.6406Z" fill="white"/>
</mask>
<g mask="url(#mask4_10004_694)">
<path d="M63.875 0.625H-0.125V64.625H63.875V0.625Z" fill="#2D2D2D"/>
</g>
</mask>
<g mask="url(#mask3_10004_694)">
<path d="M28.5 57.5C33.936 57.5 38.5 53.331 38.5 48C38.5 42.669 33.936 38.5 28.5 38.5C23.064 38.5 18.5 42.669 18.5 48C18.5 53.331 23.064 57.5 28.5 57.5Z" stroke="#2F1761" stroke-width="3"/>
<path d="M28 25C30.209 25 32 26.791 32 29C32 31.209 30.209 33 28 33C25.791 33 24 31.209 24 29C24 26.791 25.791 25 28 25Z" stroke="#2F1761" stroke-width="3"/>
</g>
<path d="M32 15C41.389 15 49 22.611 49 32C49 41.389 41.389 49 32 49C22.611 49 15 41.389 15 32C15 22.611 22.611 15 32 15Z" stroke="#2F1761" stroke-width="3"/>
</g>
</svg>
