<svg width="20" height="20" viewBox="0 0 20 20" fill="none" xmlns="http://www.w3.org/2000/svg">
<mask id="mask0_10004_73" style="mask-type:luminance" maskUnits="userSpaceOnUse" x="0" y="0" width="20" height="20">
<path d="M20 0H0V20H20V0Z" fill="white"/>
</mask>
<g mask="url(#mask0_10004_73)">
<path d="M11 6C11 6.552 10.552 7 10 7C9.448 7 9 6.552 9 6C9 5.448 9.448 5 10 5C10.552 5 11 5.448 11 6ZM9 8.5C9 8.776 8.776 9 8.5 9C8.224 9 8 8.776 8 8.5C8 8.224 8.224 8 8.5 8C8.776 8 9 8.224 9 8.5ZM10.75 10.5C11.164 10.5 11.5 10.164 11.5 9.75C11.5 9.336 11.164 9 10.75 9C10.336 9 10 9.336 10 9.75C10 10.164 10.336 10.5 10.75 10.5Z" fill="#1E61F0"/>
<path d="M16.3348 16.166C16.1088 16.665 15.7238 16.914 15.1818 16.914H4.28078C3.73878 16.914 3.35378 16.665 3.12778 16.166C2.90278 15.667 2.97378 15.208 3.34978 14.796L7.71178 9.87195V5.20495H6.88978C6.71978 5.20495 6.57578 5.14595 6.46178 5.03095C6.34678 4.91595 6.28678 4.76995 6.28678 4.59895C6.28678 4.42895 6.34678 4.28695 6.46178 4.17195C6.57578 4.05695 6.71978 4.00195 6.88978 4.00195H12.5698C12.7398 4.00195 12.8818 4.06095 13.0008 4.17595C13.1198 4.29095 13.1748 4.43695 13.1748 4.60695C13.1748 4.77695 13.1158 4.91995 13.0008 5.03495C12.8858 5.14995 12.7398 5.20495 12.5698 5.20495H11.7498V9.87195L16.1128 14.796C16.4848 15.212 16.5558 15.667 16.3298 16.166H16.3348Z" fill="#1E61F0"/>
</g>
</svg>
