<svg width="64" height="64" viewBox="0 0 64 64" fill="none" xmlns="http://www.w3.org/2000/svg">
<mask id="mask0_10004_754" style="mask-type:luminance" maskUnits="userSpaceOnUse" x="0" y="0" width="64" height="64">
<path d="M64 0H0V64H64V0Z" fill="white"/>
</mask>
<g mask="url(#mask0_10004_754)">
<path d="M24 4.875H64V44.875C64 58.122 53.247 68.875 40 68.875H0V28.875C0 15.628 10.753 4.875 24 4.875Z" fill="#C1E0FE"/>
<path d="M16.313 52.562C16.966 53.215 17.75 53.541 18.667 53.541H42V50.208H18.667V26.875H15.334V50.208C15.334 51.125 15.66 51.909 16.313 52.562Z" fill="#0D1F91"/>
<path d="M31.166 41.043L42.832 33.543L31.166 26.043V41.043ZM25.332 46.875C24.416 46.875 23.631 46.55 22.978 45.897C22.325 45.244 22 44.459 22 43.543V23.543C22 22.626 22.325 21.84 22.978 21.187C23.631 20.535 24.416 20.209 25.332 20.209H45.332C46.249 20.209 47.035 20.535 47.688 21.187C48.34 21.84 48.666 22.626 48.666 23.543V43.543C48.666 44.459 48.34 45.244 47.688 45.897C47.035 46.55 46.249 46.875 45.332 46.875H25.332ZM25.332 43.543H45.332V23.543H25.332V43.543Z" fill="#0D1F91"/>
</g>
</svg>
