<svg width="154" height="32" viewBox="0 0 154 32" fill="none" xmlns="http://www.w3.org/2000/svg">
<path d="M44.5713 5.76953L37.6172 23.2021H40.7046L42.0779 19.7132H49.4453L50.795 23.2021H53.955L47.0142 5.76953H44.5713ZM43.149 16.9295L45.7624 10.2554L48.352 16.9295H43.149Z" fill="#1E61F0"/>
<path d="M69.7606 10.7773C68.925 10.7773 68.1561 10.9699 67.4509 11.3551C66.7458 11.7403 66.2228 12.2618 65.8821 12.9166C65.1606 11.4899 63.9043 10.7773 62.1132 10.7773C61.3917 10.7773 60.6969 10.9329 60.0287 11.2455C59.3606 11.5581 58.8198 12.0588 58.4065 12.7462V11.0322H55.6465V23.2011H58.4065V16.3803C58.4065 15.4085 58.6717 14.6751 59.2021 14.1803C59.7324 13.6855 60.3709 13.4381 61.1161 13.4381C61.9428 13.4381 62.5946 13.6988 63.0732 14.2218C63.5517 14.7448 63.7902 15.4633 63.7902 16.3788V23.1996H66.5739V16.3788C66.5739 15.407 66.8376 14.6736 67.3635 14.1788C67.8909 13.684 68.5309 13.4366 69.285 13.4366C70.1028 13.4366 70.7472 13.6974 71.2183 14.2203C71.688 14.7433 71.9235 15.4618 71.9235 16.3774V23.1981H74.7443V15.7581C74.7443 14.2425 74.285 13.0322 73.365 12.1285C72.445 11.2292 71.2435 10.7773 69.7606 10.7773Z" fill="#1E61F0"/>
<path d="M87.4749 11.6277C86.5875 11.0603 85.6127 10.7773 84.5505 10.7773C83.5786 10.7773 82.7223 10.9877 81.986 11.4099C81.2482 11.8322 80.6556 12.4351 80.2112 13.2218V11.0336H77.4512V27.4573H80.2112V21.0144C80.6571 21.7922 81.2482 22.3922 81.986 22.8129C82.7238 23.2351 83.5786 23.4455 84.5505 23.4455C86.1638 23.4455 87.5327 22.8307 88.6601 21.604C89.786 20.3759 90.349 18.8825 90.349 17.124C90.349 15.9729 90.0912 14.9122 89.5771 13.9388C89.063 12.9655 88.3623 12.1951 87.4749 11.6277ZM86.5564 19.7299C85.8438 20.447 84.9727 20.8055 83.943 20.8055C82.8734 20.8055 81.983 20.4529 81.2749 19.7477C80.5653 19.0425 80.2112 18.167 80.2112 17.1211C80.2112 16.0588 80.5653 15.1759 81.2749 14.4707C81.9845 13.7655 82.8734 13.4129 83.943 13.4129C84.9727 13.4129 85.8438 13.7714 86.5564 14.4885C87.2705 15.2055 87.626 16.0825 87.626 17.1211C87.6275 18.1448 87.2705 19.0129 86.5564 19.7299Z" fill="#1E61F0"/>
<path d="M95.2971 5.76953H92.5371V23.2021H95.2971V5.76953Z" fill="#1E61F0"/>
<path d="M100.737 11.0332H97.9766V23.2021H100.737V11.0332Z" fill="#1E61F0"/>
<path d="M99.3764 5.37891C98.8904 5.37891 98.4727 5.55373 98.1245 5.90188C97.7764 6.25002 97.6016 6.66336 97.6016 7.14188C97.6016 7.63669 97.7749 8.05743 98.1245 8.40706C98.4727 8.75521 98.8904 8.93002 99.3764 8.93002C99.8623 8.93002 100.283 8.75521 100.636 8.40706C100.988 8.05891 101.165 7.63669 101.165 7.14188C101.165 6.66336 100.988 6.25002 100.636 5.90188C100.282 5.55373 99.8623 5.37891 99.3764 5.37891Z" fill="#1E61F0"/>
<path d="M107.595 7.76367H104.812V11.0333H102.502V13.6718H104.812V18.62C104.812 20.1356 105.216 21.303 106.028 22.1207C106.838 22.94 107.929 23.3489 109.298 23.3489C109.865 23.3489 110.364 23.3 110.792 23.2022V20.6378C110.542 20.703 110.241 20.7356 109.893 20.7356C109.179 20.7356 108.619 20.5593 108.21 20.2067C107.801 19.8541 107.595 19.3089 107.595 18.5711V13.6718H110.792V11.0333H107.595V7.76367Z" fill="#1E61F0"/>
<path d="M121.441 17.6229C121.441 18.5784 121.169 19.3443 120.62 19.9206C120.074 20.4955 119.351 20.7843 118.45 20.7843C117.558 20.7843 116.841 20.4969 116.297 19.9206C115.754 19.3458 115.483 18.5799 115.483 17.6229V11.0332H112.723V17.9503C112.723 19.6599 113.173 21.0036 114.072 21.9799C114.972 22.9562 116.207 23.4451 117.78 23.4451C118.583 23.4451 119.296 23.2584 119.92 22.8851C120.543 22.5132 121.05 21.9784 121.44 21.2806V23.2021H124.223V11.0332H121.44L121.441 17.6229Z" fill="#1E61F0"/>
<path d="M136.485 13.1725C136.039 12.4021 135.452 11.811 134.722 11.3976C133.993 10.9843 133.146 10.7784 132.181 10.7784C131.119 10.7784 130.143 11.0584 129.252 11.6169C128.36 12.1754 127.655 12.9413 127.137 13.9147C126.618 14.888 126.359 15.9488 126.359 17.0999C126.359 18.251 126.618 19.3147 127.137 20.291C127.655 21.2673 128.36 22.0376 129.252 22.6006C130.144 23.1636 131.12 23.4451 132.181 23.4451C133.146 23.4451 133.993 23.2406 134.722 22.8302C135.451 22.4214 136.039 21.8317 136.485 21.0613V23.2006H139.282V5.76953H136.485V13.1725ZM135.423 19.7443C134.713 20.4539 133.831 20.808 132.778 20.808C131.749 20.808 130.877 20.4495 130.165 19.7325C129.451 19.0154 129.095 18.1384 129.095 17.0999C129.095 16.0791 129.452 15.2095 130.165 14.4925C130.877 13.7754 131.749 13.4169 132.778 13.4169C133.831 13.4169 134.713 13.7695 135.423 14.4747C136.132 15.1799 136.486 16.0554 136.486 17.1013C136.485 18.1532 136.131 19.0347 135.423 19.7443Z" fill="#1E61F0"/>
<path d="M153.59 16.8559C153.59 15.6973 153.322 14.6499 152.787 13.7136C152.252 12.7773 151.532 12.0544 150.628 11.5433C149.725 11.0322 148.729 10.7773 147.643 10.7773C146.492 10.7773 145.437 11.0529 144.476 11.604C143.516 12.1551 142.757 12.9107 142.202 13.8707C141.646 14.8307 141.369 15.8914 141.369 17.0499C141.369 18.2411 141.646 19.327 142.202 20.3077C142.757 21.2885 143.517 22.0559 144.482 22.6114C145.446 23.167 146.516 23.444 147.692 23.444C149.191 23.444 150.467 23.0544 151.522 22.2766C152.575 21.4988 153.215 20.4692 153.443 19.1892H150.659C150.538 19.7077 150.208 20.1299 149.668 20.4529C149.129 20.7773 148.488 20.9388 147.741 20.9388C146.777 20.9388 145.987 20.6796 145.371 20.1611C144.754 19.6425 144.357 18.9299 144.179 18.0218H153.516C153.566 17.804 153.59 17.4144 153.59 16.8559ZM144.254 15.6514C144.457 14.9048 144.84 14.3255 145.409 13.9122C145.977 13.4988 146.668 13.2914 147.488 13.2914C148.314 13.2914 149.005 13.5092 149.56 13.9418C150.116 14.3759 150.454 14.9448 150.575 15.6499H144.254V15.6514Z" fill="#1E61F0"/>
<path d="M14.1039 7.2027C14.0135 7.08715 13.9172 7.02344 13.8016 7.02344C13.7187 7.02937 13.6416 7.05603 13.5705 7.10048C12.7157 7.76863 11.5528 10.6027 10.5957 14.342L11.4446 14.3479C13.1157 14.3672 14.8431 14.3864 16.5468 14.4116C16.0965 12.702 15.6728 11.2368 15.2816 10.0487C14.7083 8.32122 14.3231 7.54344 14.1039 7.2027Z" fill="#1E61F0"/>
<path d="M16 0C7.16444 0 0 7.16444 0 16C0 24.8356 7.16444 32 16 32C24.8356 32 32 24.8356 32 16C32 7.16444 24.8356 0 16 0ZM27.8104 15.8074C27.7659 15.9867 27.6563 16.1615 27.5022 16.2889C27.483 16.3022 27.4637 16.3141 27.4444 16.3274L27.4252 16.3407L27.3867 16.3659L27.3541 16.3852C27.2326 16.4489 27.0963 16.4815 26.9555 16.4815H19.3733C19.4311 16.7319 19.5022 17.0207 19.5718 17.3304C19.9896 19.123 21.0889 23.8904 22.2637 23.8904H22.2889H22.3022H22.3274C23.24 23.8904 23.7096 22.5674 24.7378 19.6681L24.7511 19.6356C24.9185 19.1733 25.1052 18.6459 25.3037 18.0874L25.3555 17.9467C25.4326 17.76 25.6444 17.6637 25.8311 17.7407C25.9659 17.7926 26.0622 17.9274 26.0622 18.0756C26.0622 18.1141 26.0563 18.1467 26.0489 18.1778L26.0044 18.3185C25.8948 18.6652 25.7867 19.1348 25.6504 19.6815C25.04 22.2133 24.1141 26.037 21.7496 26.037H21.7304C20.2015 26.0237 19.2889 23.5822 18.8963 22.5348C18.1644 20.5807 17.6118 18.5052 17.0785 16.4889H10.1141L8.66815 21.1215L8.64889 21.1022C8.43111 21.443 7.97481 21.5452 7.63407 21.3274C7.42222 21.1926 7.29333 20.9615 7.29333 20.7111V20.6859L7.3837 20.1585C7.58222 18.9704 7.82666 17.7289 8.09629 16.483H5.14074L5.12741 16.4696C4.52296 16.3793 4.10518 15.8148 4.19555 15.2104C4.26667 14.7407 4.62667 14.3689 5.08889 14.2844C5.20444 14.2711 5.32 14.2652 5.43555 14.2711H5.57629C6.50815 14.2844 7.49778 14.3037 8.58963 14.3156C10.1259 8.06963 11.9052 4.89481 13.8844 4.88889C16.0044 4.88889 17.5793 9.71407 18.8385 14.437L18.8444 14.4563C21.4281 14.5081 24.1911 14.5852 26.8696 14.7778L26.9852 14.7911C27.0296 14.7911 27.0681 14.797 27.1141 14.8044H27.1274L27.1407 14.8104H27.1467C27.6044 14.9007 27.9067 15.3511 27.8104 15.8074Z" fill="#1E61F0"/>
</svg>
