<svg width="20" height="20" viewBox="0 0 20 20" fill="none" xmlns="http://www.w3.org/2000/svg">
<mask id="mask0_10004_59" style="mask-type:luminance" maskUnits="userSpaceOnUse" x="0" y="0" width="20" height="20">
<path d="M20 0H0V20H20V0Z" fill="white"/>
</mask>
<g mask="url(#mask0_10004_59)">
<path d="M8.25 12.8154V7.19141L12.362 10.0024L8.25 12.8154Z" fill="#1E61F0"/>
<path d="M9.91366 18.0205C7.82166 18.0205 6.02666 17.3205 4.52666 15.9205C3.02666 14.5205 2.18466 12.7955 2.00566 10.7375C1.98066 10.5415 2.03866 10.3665 2.17566 10.2205C2.31766 10.0705 2.49266 9.99551 2.70566 9.99152C2.90566 9.99152 3.07666 10.0535 3.22166 10.1875C3.36766 10.3205 3.45966 10.4955 3.50166 10.7035C3.67166 12.3495 4.36366 13.7285 5.56766 14.8455C6.77666 15.9625 8.22166 16.5205 9.90966 16.5205C11.7467 16.5205 13.3057 15.8745 14.5807 14.5875C15.8597 13.2955 16.4967 11.7335 16.4967 9.89152C16.4967 8.09552 15.8507 6.57452 14.5597 5.33752C13.2677 4.09552 11.7177 3.47852 9.90566 3.47852C8.93866 3.47852 8.03466 3.69552 7.18466 4.12452C6.33866 4.55352 5.59666 5.12452 4.96366 5.84152H6.46366C6.65966 5.84152 6.82666 5.90852 6.95566 6.03752C7.08466 6.16652 7.15166 6.33352 7.15166 6.52852C7.15166 6.72452 7.08466 6.89552 6.95566 7.02452C6.82666 7.15352 6.65966 7.22052 6.46366 7.22052H3.23066C3.01766 7.22052 2.83866 7.14952 2.69666 7.00852C2.55566 6.86652 2.48466 6.68752 2.48466 6.47452V3.24952C2.48466 3.05352 2.55066 2.88752 2.68066 2.75852C2.80966 2.62852 2.97166 2.56652 3.17166 2.56652C3.37166 2.56652 3.53466 2.62852 3.66366 2.75852C3.79266 2.88752 3.85966 3.04952 3.85966 3.24952V4.82852C4.63066 3.94552 5.53866 3.24952 6.58466 2.74152C7.63066 2.23352 8.74266 1.97852 9.91766 1.97852C11.0307 1.97852 12.0757 2.18752 13.0557 2.60352C14.0347 3.02052 14.8927 3.59152 15.6307 4.31252C16.3677 5.03352 16.9467 5.87452 17.3677 6.84152C17.7887 7.80852 18.0007 8.84552 18.0007 9.95852C18.0007 11.0705 17.7887 12.1165 17.3677 13.0955C16.9467 14.0745 16.3677 14.9285 15.6307 15.6575C14.8927 16.3875 14.0387 16.9625 13.0557 17.3835C12.0717 17.8035 11.0307 18.0165 9.91766 18.0165L9.91366 18.0205Z" fill="#1E61F0"/>
</g>
</svg>
