<svg width="24" height="24" viewBox="0 0 24 24" fill="none" xmlns="http://www.w3.org/2000/svg">
<path d="M12.5337 22C8.0784 21.9883 4.19901 19.1751 2.93052 14.9766C1.87215 11.4591 2.55698 8.24504 4.93831 5.43569C6.40135 3.70805 8.28463 2.64968 10.5025 2.19831C11.7438 1.94539 13.02 1.93372 14.2652 2.16718C14.4053 2.19442 14.4053 2.22944 14.3508 2.34228C13.7399 3.61466 13.129 4.89094 12.5259 6.16721C12.4947 6.24892 12.413 6.29951 12.3235 6.29172C9.70097 6.35787 7.45972 8.20224 6.89163 10.7626C6.28073 13.4824 7.75155 16.2957 10.3508 17.2957C12.413 18.0856 14.3274 17.7704 16.0745 16.4202C16.164 16.354 16.199 16.3385 16.2652 16.4513C16.9344 17.6225 17.6076 18.7899 18.2885 19.9572C18.3469 20.0584 18.3274 20.105 18.238 20.1673C16.9228 21.0973 15.4053 21.6926 13.8099 21.9066C13.3819 21.9572 12.9578 21.9883 12.5337 22Z" fill="white"/>
<path d="M19.4517 19.105C19.3972 19.0739 19.3817 19.0155 19.3544 18.9649C18.5918 17.6497 17.8369 16.3345 17.082 15.0155C17.0276 14.9065 16.9108 14.8404 16.7902 14.852C15.2805 14.8559 13.7707 14.852 12.261 14.852H12.0742C12.0742 14.7937 12.0937 14.7392 12.1326 14.6964C12.8991 13.3657 13.6657 12.031 14.4361 10.7003C14.4789 10.6108 14.5723 10.5563 14.6735 10.568C16.2182 10.5719 17.7669 10.5719 19.3116 10.568C19.4089 10.5563 19.5023 10.6108 19.5451 10.7003C20.3155 12.0427 21.0898 13.3851 21.8681 14.7275C21.9225 14.7976 21.9225 14.8949 21.8758 14.9688C21.0937 16.319 20.3155 17.6653 19.5412 19.0155C19.5101 19.0427 19.5023 19.0894 19.4517 19.105Z" fill="white"/>
<path d="M16.1978 4.95307C15.9215 4.6768 15.6608 4.41221 15.3962 4.15151C15.3145 4.06979 15.3729 4.01143 15.4079 3.94917C15.7153 3.41609 16.2133 3.0192 16.8009 2.8441C17.5207 2.60675 18.3106 2.68457 18.9721 3.05811C20.1744 3.70792 20.0694 5.21766 19.3729 5.90249C19.1083 6.15541 18.8126 6.36942 18.4857 6.54063C18.1511 6.71962 17.8165 6.88693 17.4896 7.07759C17.2172 7.23324 17.0071 7.44725 16.9059 7.76242C16.867 7.88694 16.8904 7.92196 17.0227 7.91807C17.9059 7.91418 18.7931 7.91807 19.6764 7.91418C19.8087 7.91418 19.8593 7.94141 19.8554 8.08538C19.8437 8.39667 19.8476 8.71185 19.8554 9.02313C19.8554 9.12041 19.8281 9.15543 19.727 9.15543C18.3067 9.15154 16.8826 9.15154 15.4624 9.15543C15.3962 9.15543 15.334 9.15543 15.334 9.05815C15.334 8.07371 15.5168 7.15542 16.2873 6.45502C16.653 6.12817 17.0655 5.85969 17.5091 5.65346C17.7542 5.53284 17.9993 5.42 18.2094 5.24879C18.3962 5.09704 18.5246 4.91416 18.5363 4.66513C18.5558 4.27602 18.2484 3.99197 17.7853 3.96084C17.1199 3.91415 16.6413 4.21376 16.3028 4.77019C16.2717 4.81688 16.2406 4.87135 16.1978 4.95307Z" fill="white"/>
<path d="M19.5875 20.5063V20.1833H19.4707V20.1172H19.7781V20.1833H19.6614V20.5063H19.5875ZM19.8326 20.5063V20.1172H19.9493L20.0155 20.3818L20.0816 20.1172H20.1983V20.5063H20.1322V20.2028L20.0544 20.5063H19.9804L19.9026 20.2028V20.5063H19.8326Z" fill="white"/>
</svg>
