<svg width="24" height="30" viewBox="0 0 24 30" fill="none" xmlns="http://www.w3.org/2000/svg">
<path d="M22.4591 9C21.6891 9.35 20.8591 9.58 19.9991 9.69C20.8791 9.16 21.5591 8.32 21.8791 7.31C21.0491 7.81 20.1291 8.16 19.1591 8.36C18.3691 7.5 17.2591 7 15.9991 7C13.6491 7 11.7291 8.92 11.7291 11.29C11.7291 11.63 11.7691 11.96 11.8391 12.27C8.27906 12.09 5.10906 10.38 2.99906 7.79C2.62906 8.42 2.41906 9.16 2.41906 9.94C2.41906 11.43 3.16906 12.75 4.32906 13.5C3.61906 13.5 2.95906 13.3 2.37906 13C2.37906 13 2.37906 13 2.37906 13.03C2.37906 15.11 3.85906 16.85 5.81906 17.24C5.45906 17.34 5.07906 17.39 4.68906 17.39C4.41906 17.39 4.14906 17.36 3.88906 17.31C4.42906 19 5.99906 20.26 7.88906 20.29C6.42906 21.45 4.57906 22.13 2.55906 22.13C2.21906 22.13 1.87906 22.11 1.53906 22.07C3.43906 23.29 5.69906 24 8.11906 24C15.9991 24 20.3291 17.46 20.3291 11.79C20.3291 11.6 20.3291 11.42 20.3191 11.23C21.1591 10.63 21.8791 9.87 22.4591 9Z" fill="white"/>
</svg>
