<svg width="24" height="30" viewBox="0 0 24 30" fill="none" xmlns="http://www.w3.org/2000/svg">
<path d="M19 6C19.5304 6 20.0391 6.21071 20.4142 6.58578C20.7893 6.96086 21 7.46957 21 8V22C21 22.5304 20.7893 23.0391 20.4142 23.4142C20.0391 23.7893 19.5304 24 19 24H5C4.46957 24 3.96086 23.7893 3.58578 23.4142C3.21071 23.0391 3 22.5304 3 22V8C3 7.46957 3.21071 6.96086 3.58578 6.58578C3.96086 6.21071 4.46957 6 5 6H19ZM18.5 21.5V16.2C18.5 15.3354 18.1566 14.5062 17.5452 13.8948C16.9338 13.2834 16.1046 12.94 15.24 12.94C14.39 12.94 13.4 13.46 12.92 14.24V13.13H10.13V21.5H12.92V16.57C12.92 15.8 13.54 15.17 14.31 15.17C14.6813 15.17 15.0374 15.3175 15.2999 15.5801C15.5625 15.8426 15.71 16.1987 15.71 16.57V21.5H18.5ZM6.88 11.56C7.32556 11.56 7.75288 11.383 8.06792 11.0679C8.38304 10.7529 8.56 10.3256 8.56 9.88C8.56 8.95 7.81 8.19 6.88 8.19C6.43178 8.19 6.00193 8.36806 5.68499 8.68499C5.36806 9.00193 5.19 9.43178 5.19 9.88C5.19 10.81 5.95 11.56 6.88 11.56ZM8.27 21.5V13.13H5.5V21.5H8.27Z" fill="white"/>
</svg>
