<svg width="16" height="17" viewBox="0 0 16 17" fill="none" xmlns="http://www.w3.org/2000/svg">
<path d="M8 0.617188C6.41775 0.617188 4.87103 1.08638 3.55544 1.96543C2.23985 2.84448 1.21447 4.09391 0.608967 5.55572C0.00346619 7.01753 -0.15496 8.62606 0.153721 10.1779C0.462403 11.7297 1.22433 13.1552 2.34315 14.274C3.46197 15.3928 4.88743 16.1548 6.43928 16.4634C7.99113 16.7721 9.59966 16.6137 11.0615 16.0082C12.5233 15.4027 13.7727 14.3773 14.6518 13.0617C15.5308 11.7461 16 10.1994 16 8.61718C15.9937 6.4974 15.1488 4.46624 13.6499 2.96732C12.1509 1.4684 10.1198 0.623519 8 0.617188ZM10.765 9.04118L6.765 11.5412C6.68554 11.5908 6.59371 11.6172 6.5 11.6172C6.3674 11.6172 6.24022 11.5645 6.14645 11.4707C6.05268 11.3769 6 11.2498 6 11.1172V6.11718C6 6.02793 6.02389 5.94031 6.06919 5.8634C6.1145 5.7865 6.17956 5.72313 6.25762 5.67986C6.33568 5.6366 6.42391 5.61501 6.51313 5.61736C6.60235 5.6197 6.68932 5.64588 6.765 5.69318L10.765 8.19318C10.8369 8.23813 10.8962 8.30063 10.9373 8.3748C10.9784 8.44897 11 8.53238 11 8.61718C11 8.70199 10.9784 8.7854 10.9373 8.85957C10.8962 8.93374 10.8369 8.99624 10.765 9.04118Z" fill="#1E61F0"/>
</svg>
